<svg xmlns="http://www.w3.org/2000/svg" version="1.1" xmlns:xlink="http://www.w3.org/1999/xlink" width="512" height="512" x="0" y="0" viewBox="0 0 512 512" style="enable-background:new 0 0 512 512" xml:space="preserve" class=""><g><g data-name="Filled outline"><path fill="#d6d6d4" d="M152 321.684V190.316a87.824 87.824 0 0 0 43.693-105.441L144 136.151a19.39 19.39 0 0 1-13.741 5.6 19.389 19.389 0 0 1-13.6-5.679l-28.73-28.73a19.388 19.388 0 0 1-5.679-13.6A19.39 19.39 0 0 1 87.849 80l51.276-51.693a87.706 87.706 0 0 0-38.015-3.632c-41.427 5.137-74.359 40.073-76.937 81.738A87.913 87.913 0 0 0 72 190.316v131.368a87.824 87.824 0 0 0-43.693 105.441L80 375.849a19.39 19.39 0 0 1 13.741-5.6 19.389 19.389 0 0 1 13.6 5.679l28.73 28.73a19.388 19.388 0 0 1 5.679 13.6 19.39 19.39 0 0 1-5.6 13.741l-51.275 51.694a87.706 87.706 0 0 0 38.015 3.632c41.427-5.137 74.359-40.073 76.937-81.738A87.913 87.913 0 0 0 152 321.684z" opacity="1" data-original="#d6d6d4" class=""></path><path fill="#c7c7c5" d="M152 321.684V221.333l-80 80v20.351a87.824 87.824 0 0 0-43.693 105.441L80 375.849a19.39 19.39 0 0 1 27.345.076l28.73 28.729a19.391 19.391 0 0 1 .076 27.346l-51.276 51.693a87.706 87.706 0 0 0 38.015 3.632c41.427-5.137 74.359-40.073 76.937-81.738A87.913 87.913 0 0 0 152 321.684z" opacity="1" data-original="#c7c7c5" class=""></path><path fill="#b0b0ae" d="M104 184h16v144h-16z" opacity="1" data-original="#b0b0ae" class=""></path><path fill="#fec9a3" d="M488 400v-70.37a48 48 0 0 0-41.212-47.517L376 272v-48h-80v48l-74.057 15.869A48 48 0 0 0 184 334.8V400" opacity="1" data-original="#fec9a3" class=""></path><path fill="#feb784" d="M296 224v27.856a71.963 71.963 0 0 0 80 0V224z" opacity="1" data-original="#feb784"></path><path fill="#e0e0de" d="M446.788 282.112 376 272l-17.143 48h-45.714L296 272l-74.058 15.869A48 48 0 0 0 184 334.8V400h304v-70.37a48 48 0 0 0-41.212-47.518z" opacity="1" data-original="#e0e0de"></path><path fill="#ff8d13" d="M488 329.63V416h-56v80H240v-72h-56v-89.2a48 48 0 0 1 37.94-46.93L296 272l40 112 40-112 70.79 10.11A48.017 48.017 0 0 1 488 329.63z" opacity="1" data-original="#425b82" class=""></path><path fill="#e7a854" d="M488 329.63V416h-56v80H240v-37.76c91.59-36.41 168.66-75.08 233.16-163.31a47.9 47.9 0 0 1 14.84 34.7z" opacity="1" data-original="#3c5174" class=""></path><g fill="#334562"><path d="M328 384h16v112h-16zM360 376h72v16h-72zM296 368h16v16h-16z" fill="#dc840d" opacity="1" data-original="#334562" class=""></path><path d="M424 352h16v128h-16zM232 352h16v128h-16z" fill="#dc840d" opacity="1" data-original="#334562" class=""></path></g><path fill="#d2680b" d="M265.871 278.456 272 352l43.661-24.949L296 264zM356.339 327.051 400 352l6.306-75.671L376 264z" opacity="1" data-original="#49648e" class=""></path><path fill="#feb784" d="M216 488h24l152-32h40l16-16h40v-56h-40l-56 24-208 16v32a32 32 0 0 0 32 32z" opacity="1" data-original="#feb784"></path><path fill="#fec9a3" d="M456 488h-24l-152-32h-40l-16-16h-40v-56h40l56 24 208 16v32a32 32 0 0 1-32 32z" opacity="1" data-original="#fec9a3" class=""></path><path fill="#feb784" d="M416 128h-8v48h8a24 24 0 1 0 0-48zM256.4 128h-.4a24 24 0 0 0 0 48h8v-48z" opacity="1" data-original="#feb784"></path><path fill="#fec9a3" d="M408 120v56a72.006 72.006 0 0 1-72 72 73.884 73.884 0 0 1-7.48-.38A72.025 72.025 0 0 1 264 176v-56a72.006 72.006 0 0 1 72-72q3 0 5.94.24a.01.01 0 0 1 .01.01A72 72 0 0 1 408 120z" opacity="1" data-original="#fec9a3" class=""></path><path fill="#fec093" d="M408 120v56a72.006 72.006 0 0 1-72 72 73.884 73.884 0 0 1-7.48-.38A87.994 87.994 0 0 0 379 168v-48a88.1 88.1 0 0 0-37.05-71.75A72 72 0 0 1 408 120z" opacity="1" data-original="#fec093"></path><path fill="#7a432a" d="M301.8 89.157a174.36 174.36 0 0 0 68.4 0L376 88l32 37.333V120a72 72 0 0 0-144 0v5.331L296 88z" opacity="1" data-original="#7a432a"></path><path fill="#f7a468" d="M328.938 200H312v-16h16.938a99.077 99.077 0 0 0 28.742-4.215l4.64 15.313A115.016 115.016 0 0 1 328.938 200z" opacity="1" data-original="#f7a468" class=""></path><circle cx="372" cy="147.998" r="12" fill="#7a432a" opacity="1" data-original="#7a432a"></circle><circle cx="300" cy="147.996" r="12" fill="#7a432a" opacity="1" data-original="#7a432a"></circle><path fill="#d2680b" d="M417.77 113.06a24.289 24.289 0 0 1-28.27 23.86l-21.94-3.66a192.325 192.325 0 0 0-63.12 0l-21.94 3.66A24.247 24.247 0 0 1 256 104h160a24.361 24.361 0 0 1 1.77 9.06z" opacity="1" data-original="#49648e" class=""></path><path fill="#ff8d13" d="M416 72v32H256V72a48 48 0 0 1 48-48h64a47.982 47.982 0 0 1 15.18 2.46c.89.3 1.77.62 2.63.97A47.98 47.98 0 0 1 416 72z" opacity="1" data-original="#425b82" class=""></path><path fill="#e7a854" d="M416 72v32H280c48-16 81.59-44.03 105.81-76.57A47.98 47.98 0 0 1 416 72z" opacity="1" data-original="#3c5174" class=""></path><path fill="#e0e0de" d="M304 72h64v32h-64z" opacity="1" data-original="#e0e0de"></path><path fill="#d6d6d4" d="M304 88h64v16h-64z" opacity="1" data-original="#d6d6d4" class=""></path><path fill="#ff8d13" d="M417.77 113.06a24.289 24.289 0 0 1-28.27 23.86l-21.94-3.66a191.346 191.346 0 0 0-20.52-2.29c16.84-7.09 30.66-15.9 40.81-26.97H416a24.361 24.361 0 0 1 1.77 9.06z" opacity="1" data-original="#425b82" class=""></path><path d="m447.927 274.16-39.563-5.63L384 258.618v-18.662A79.509 79.509 0 0 0 415.6 184h.4a32 32 0 0 0 8.712-62.785 31.856 31.856 0 0 0-.712-18.609V72a56 56 0 0 0-56-56h-64a56 56 0 0 0-56 56v30.606a31.856 31.856 0 0 0-.712 18.609A32 32 0 0 0 256 184h.4a79.512 79.512 0 0 0 31.6 55.961v19l-24.8 11.9-42.983 9.16a56.472 56.472 0 0 0-43.889 48.861A96.831 96.831 0 0 0 160 316.937V195.074a95.757 95.757 0 0 0 43.283-112.682 8 8 0 0 0-13.238-3.192l-51.64 51.24a11.6 11.6 0 0 1-8.165 3.319 11.337 11.337 0 0 1-7.943-3.337L93.577 101.7a11.338 11.338 0 0 1-3.337-7.94 11.576 11.576 0 0 1 3.279-8.125l51.28-51.68a8 8 0 0 0-3.195-13.24A95.944 95.944 0 0 0 64 195.069v121.857a95.757 95.757 0 0 0-43.283 112.682 8 8 0 0 0 13.238 3.192l51.64-51.24a11.6 11.6 0 0 1 8.165-3.319 11.337 11.337 0 0 1 7.943 3.337l28.72 28.719a11.338 11.338 0 0 1 3.337 7.944 11.576 11.576 0 0 1-3.279 8.125L79.2 478.045a8 8 0 0 0 3.2 13.24c33.137 10.825 70.861 1.908 95.845-22.107A40.063 40.063 0 0 0 216 496h24c.555 0 88-18.393 88-18.393V496h16v-18.351l86.352 18.18A8.074 8.074 0 0 0 432 496h24a40.045 40.045 0 0 0 40-40V329.6a56.386 56.386 0 0 0-48.073-55.44zM336 360.186 324.481 328h23zm-32-110.9a79.6 79.6 0 0 0 64 0v13.5L352.652 312h-33.3L304 262.781zm62.1 73.34 14.948-47.934 16.8 6.834-4.775 57.3-26.928-15.387.256-.706zm2.78-197.256a199.584 199.584 0 0 0-65.76 0l-21.94 3.656A16.277 16.277 0 0 1 262.275 112h147.45a16.277 16.277 0 0 1-18.905 17.026zM360 96h-48V80h48zm72 56a16.035 16.035 0 0 1-16 16v-31.9c.032-.032.066-.061.1-.092A16.015 16.015 0 0 1 432 152zM264 72a40 40 0 0 1 40-40h64a40 40 0 0 1 40 40v24h-32V72a8 8 0 0 0-8-8h-64a8 8 0 0 0-8 8v24h-32zm-19.3 91.3a15.983 15.983 0 0 1 11.22-27.3l.08.082V168a16.108 16.108 0 0 1-11.3-4.7zM272 176v-31.383a32.557 32.557 0 0 0 11.811.192l4.891-.816a12 12 0 1 0 20.713-3.413 183.523 183.523 0 0 1 53.17 0 12.006 12.006 0 1 0 20.713 3.413l4.891.816c3.436.691 9.742.23 11.811-.188V176a64 64 0 0 1-128 0zm19.117 99.216 14.772 47.367-.3.108.272.748-26.931 15.387-4.63-55.541zm-67.53 20.448 35.067-7.473 5.373 64.474a8 8 0 0 0 4.248 6.415c1.167.614 6.466.568 7.694-.134l35.385-20.221L328 385.384v18.284l-46.065-3.543L248 385.582V352h-16v26.725l-4.849-2.078A8 8 0 0 0 224 376h-32v-41.2a40.314 40.314 0 0 1 31.587-39.136zM121.929 479.417a80.871 80.871 0 0 1-21.316-.235l41.266-41.588a27.522 27.522 0 0 0 7.881-19.354 27.082 27.082 0 0 0-8.023-19.257l-28.72-28.72a27.079 27.079 0 0 0-19.257-8.023 27.555 27.555 0 0 0-19.4 7.921l-41.541 41.225A79.86 79.86 0 0 1 75.642 328.8 8 8 0 0 0 80 321.68V190.32a8 8 0 0 0-4.354-7.121 80.208 80.208 0 0 1-43.5-76.309c2.311-37.65 32.392-69.6 69.925-74.307a80.914 80.914 0 0 1 21.316.235L82.121 74.406A27.522 27.522 0 0 0 74.24 93.76a27.082 27.082 0 0 0 8.023 19.257l28.72 28.72a27.079 27.079 0 0 0 19.257 8.023 27.555 27.555 0 0 0 19.395-7.921l41.546-41.225a79.86 79.86 0 0 1-42.823 82.586 8 8 0 0 0-4.358 7.12v131.36a8 8 0 0 0 4.352 7.12A81 81 0 0 1 176 352.125V447.6a80.235 80.235 0 0 1-54.071 31.817zm117.236.583H216a24.027 24.027 0 0 1-24-24v-8h28.687l13.656 13.657A8 8 0 0 0 240 464h39.167l17.932 3.775zM480 456a24.027 24.027 0 0 1-24 24h-23.167l-151.185-31.829c-.542-.113-38.335-.171-38.335-.171l-13.656-13.657A8 8 0 0 0 224 432h-32v-40h30.357s56.155 23.909 57.03 23.977L480 431.408zm0-40.639-71.938-5.534L449.647 392H480zM480 376h-32c-1.087 0-8 2.732-8 2.732V352h-16v24h-64v16h49.052l-18.986 8.125L344 403.684v-18.3l16.646-46.66 35.385 20.221a8 8 0 0 0 11.942-6.281l5.6-67.232L445.646 290A40.292 40.292 0 0 1 480 329.6z" fill="#000000" opacity="1" data-original="#000000" class=""></path><path d="M296 368h16v16h-16zM362.319 195.1l-4.638-15.313A99.062 99.062 0 0 1 328.934 184H312v16h16.934a115.032 115.032 0 0 0 33.385-4.9zM104 184h16v144h-16z" fill="#000000" opacity="1" data-original="#000000" class=""></path></g></g></svg>