<svg xmlns="http://www.w3.org/2000/svg" version="1.1" xmlns:xlink="http://www.w3.org/1999/xlink" width="512" height="512"><svg width="512" height="512" viewBox="0 0 512 512" fill="none" xmlns="http://www.w3.org/2000/svg">
<path d="M473.239 161.478H425.913H418.953L361.37 215.939L361.382 161.478H354.421H307.096H300.134L97.2552 352.5H100.736H104.217H181.191H184.673H188.153L300.116 248.043L300.096 352.196L300.01 352.5L300.096 352.419V352.5H303.578H307.059H354.383H357.864H361.345L361.353 301.762L418.934 248.043L418.913 352.5H422.394H425.875H473.2H476.68H480.161L480.2 161.478H473.239Z" fill="#030404"></path>
<path d="M199.419 201.979C211.902 201.979 218.921 207.022 219.747 218.505C220.831 233.583 204.659 234.626 197.037 234.626H93.402L93.2554 201.979H199.419ZM263.233 178.695C249.834 165.845 232.331 159.5 210.718 159.5H207.237H203.755H38.5019H35.0209H31.5393L31.5 350.522H34.9807H38.4626H85.9474H89.4284H92.91L92.9182 277.037H203.731H207.212H210.694C270.831 277.037 283.409 242.418 283.416 224.534C283.419 206.872 276.636 191.542 263.233 178.695Z" fill="#D96227"></path>
</svg><style>@media (prefers-color-scheme: light) { :root { filter: none; } }
@media (prefers-color-scheme: dark) { :root { filter: none; } }
</style></svg>